<?xml version="1.0" encoding="UTF-8"?> <svg xmlns="http://www.w3.org/2000/svg" width="1201" height="245" viewBox="0 0 1201 245" fill="none"> <path d="M140.459 24.8388C140.459 12.2028 150.904 1.95923 163.788 1.95923H210.444C223.328 1.95923 233.772 12.2028 233.772 24.8388V70.598C233.772 83.2341 223.328 93.4776 210.444 93.4776H163.788C150.904 93.4776 140.459 83.2341 140.459 70.598V24.8388Z" fill="#001AFF"></path> <path d="M140.459 162.116C140.459 149.48 150.904 139.237 163.787 139.237H210.444C223.328 139.237 233.772 149.48 233.772 162.116V207.876C233.772 220.512 223.328 230.755 210.444 230.755H163.787C150.904 230.755 140.459 220.512 140.459 207.876V162.116Z" fill="#001AFF"></path> <path d="M0.490448 162.116C0.490448 149.48 10.9348 139.237 23.8186 139.237H70.4749C83.3587 139.237 93.803 149.48 93.803 162.116V207.876C93.803 220.512 83.3587 230.755 70.4749 230.755H23.8186C10.9348 230.755 0.490448 220.512 0.490448 207.876V162.116Z" fill="#001AFF"></path> <path fill-rule="evenodd" clip-rule="evenodd" d="M140.459 70.598C140.459 83.2341 130.015 93.4776 117.131 93.4776C104.247 93.4776 93.8031 83.2341 93.8031 70.598C93.8031 83.2341 83.3588 93.4776 70.475 93.4776C83.3588 93.4776 93.803 103.721 93.803 116.357C93.803 128.993 83.3587 139.237 70.4749 139.237L93.803 162.116C93.803 149.48 104.247 139.237 117.131 139.237C130.015 139.237 140.459 149.48 140.459 162.116L163.787 139.237C150.904 139.237 140.459 128.993 140.459 116.357C140.459 103.721 150.904 93.4776 163.788 93.4776L140.459 70.598Z" fill="#001AFF"></path> <path d="M70.475 1.95923H23.8187C10.9349 1.95923 0.490562 12.2028 0.490562 24.8388V70.598C0.490562 83.2341 10.9349 93.4776 23.8187 93.4776H70.475L93.8031 70.598V24.8388C93.8031 12.2028 83.3588 1.95923 70.475 1.95923Z" fill="#001AFF"></path> <path d="M93.8031 70.598C93.8031 83.2341 83.3588 93.4776 70.475 93.4776L93.8031 70.598Z" fill="#001AFF"></path> <path d="M441.857 90.8394C444.977 89.9377 446.663 86.6025 445.246 83.7307C433.224 59.356 408.15 43.7432 378.138 43.7432C356.77 43.7432 339.189 50.6092 324.854 64.6055C310.789 78.3376 303.757 95.5028 303.757 116.365C303.757 137.227 310.789 154.393 324.854 168.389C339.189 182.121 356.77 188.987 378.138 188.987C408.15 188.987 433.224 173.374 445.246 149C446.663 146.128 444.977 142.793 441.857 141.891L418.518 135.146C415.841 134.372 413.032 135.691 411.589 138.034C404.686 149.245 392.382 155.977 378.138 155.977C367.048 155.977 357.582 152.28 350.008 144.622C342.435 136.963 338.648 127.721 338.648 116.365C338.648 105.01 342.435 95.7669 350.008 88.1086C357.582 80.4503 367.048 76.7532 378.138 76.7532C392.382 76.7532 404.686 83.4854 411.589 94.6966C413.032 97.0394 415.841 98.3578 418.518 97.5842L441.857 90.8394Z" fill="#171D45"></path> <path d="M490.065 168.389C504.401 182.121 521.982 188.987 543.35 188.987C564.717 188.987 582.299 182.121 596.634 168.389C610.969 154.393 618.002 137.227 618.002 116.365C618.002 95.5028 610.969 78.3376 596.634 64.6055C582.299 50.6092 564.717 43.7432 543.35 43.7432C521.982 43.7432 504.401 50.6092 490.065 64.6055C476 78.3376 468.968 95.5028 468.968 116.365C468.968 137.227 476 154.393 490.065 168.389ZM515.22 88.1086C522.793 80.4503 532.26 76.7532 543.35 76.7532C554.439 76.7532 563.906 80.4503 571.479 88.1086C579.053 95.7669 582.839 105.01 582.839 116.365C582.839 127.721 579.053 136.963 571.479 144.622C563.906 152.28 554.439 155.977 543.35 155.977C532.26 155.977 522.793 152.28 515.22 144.622C507.646 136.963 503.86 127.721 503.86 116.365C503.86 105.01 507.646 95.7669 515.22 88.1086Z" fill="#171D45"></path> <path d="M669.421 185.026C672.494 185.026 674.985 182.583 674.985 179.569V104.217C674.985 87.5804 687.967 75.1687 704.467 75.1687C720.966 75.1687 733.678 87.5804 733.678 104.217V179.569C733.678 182.583 736.169 185.026 739.242 185.026H761.925C764.997 185.026 767.488 182.583 767.488 179.569V104.217C767.488 87.5804 780.471 75.1687 796.97 75.1687C813.469 75.1687 826.182 87.5804 826.182 104.217V179.569C826.182 182.583 828.673 185.026 831.745 185.026H854.158C857.23 185.026 859.721 182.583 859.721 179.569V94.7106C859.721 80.1862 854.312 68.0385 843.763 58.2676C833.214 48.4966 819.961 43.7432 803.732 43.7432C787.308 43.7432 774.065 48.8594 764.316 59.2438C761.455 62.2903 756.212 62.2895 753.362 59.2338C743.683 48.8561 730.668 43.7432 714.474 43.7432C701.266 43.7432 690.138 47.6356 681.229 55.5559C679.004 57.534 674.985 56.1062 674.985 53.1609C674.985 50.1473 672.494 47.7044 669.421 47.7044H646.738C643.666 47.7044 641.175 50.1473 641.175 53.1609V179.569C641.175 182.583 643.666 185.026 646.738 185.026H669.421Z" fill="#171D45"></path> <path d="M911.118 244.444C914.191 244.444 916.682 242.001 916.682 238.988V186.135C916.682 181.326 922.473 178.531 926.756 180.871C936.592 186.247 947.352 188.988 959.147 188.988C978.621 188.988 994.85 182.121 1008.1 168.389C1021.36 154.393 1027.85 137.228 1027.85 116.365C1027.85 95.5031 1021.36 78.3379 1008.1 64.6057C994.85 50.6095 978.621 43.7434 959.147 43.7434C945.039 43.7434 932.41 47.665 921.075 55.3258C919.258 56.5535 916.682 55.3249 916.682 53.1611C916.682 50.1476 914.191 47.7046 911.118 47.7046H888.435C885.363 47.7046 882.872 50.1476 882.872 53.1611V238.988C882.872 242.001 885.363 244.444 888.435 244.444H911.118ZM981.597 88.1089C988.899 95.7672 992.686 105.01 992.686 116.365C992.686 127.721 988.899 136.964 981.597 144.622C974.294 152.28 965.368 155.977 954.819 155.977C944.27 155.977 935.345 152.28 928.042 144.622C920.739 136.964 917.223 127.721 917.223 116.365C917.223 105.01 920.739 95.7672 928.042 88.1089C935.345 80.4505 944.27 76.7534 954.819 76.7534C965.368 76.7534 974.294 80.4505 981.597 88.1089Z" fill="#171D45"></path> <path d="M1072.1 168.389C1086.44 182.121 1104.02 188.988 1125.39 188.988C1146.76 188.988 1164.34 182.121 1178.67 168.389C1193.01 154.393 1200.04 137.228 1200.04 116.365C1200.04 95.5031 1193.01 78.3379 1178.67 64.6057C1164.34 50.6095 1146.76 43.7434 1125.39 43.7434C1104.02 43.7434 1086.44 50.6095 1072.1 64.6057C1058.04 78.3379 1051.01 95.5031 1051.01 116.365C1051.01 137.228 1058.04 154.393 1072.1 168.389ZM1097.26 88.1089C1104.83 80.4505 1114.3 76.7534 1125.39 76.7534C1136.48 76.7534 1145.95 80.4505 1153.52 88.1089C1161.09 95.7672 1164.88 105.01 1164.88 116.365C1164.88 127.721 1161.09 136.964 1153.52 144.622C1145.95 152.28 1136.48 155.977 1125.39 155.977C1114.3 155.977 1104.83 152.28 1097.26 144.622C1089.69 136.964 1085.9 127.721 1085.9 116.365C1085.9 105.01 1089.69 95.7672 1097.26 88.1089Z" fill="#171D45"></path> </svg> 